<svg width="431" height="213" viewBox="0 0 431 213" fill="none" xmlns="http://www.w3.org/2000/svg">
<path d="M429.91 19.5194L359.493 1L376.348 22.5251L429.91 19.5194Z" fill="white" stroke="#263238" stroke-linecap="round" stroke-linejoin="round"/>
<path d="M376.348 22.5251L375.822 37.0085L429.91 19.5193L376.348 22.5251Z" fill="white" stroke="#263238" stroke-linecap="round" stroke-linejoin="round"/>
<path d="M382.725 29.7608L375.822 37.0085L429.91 19.5193L382.725 29.7608Z" fill="white" stroke="#263238" stroke-linecap="round" stroke-linejoin="round"/>
<path d="M429.91 19.5193L382.725 29.7608L395.026 50.9829L429.91 19.5193Z" fill="white" stroke="#263238" stroke-linecap="round" stroke-linejoin="round"/>
<path d="M364.757 33.6876L362.945 33.93" stroke="#263238" stroke-linecap="round" stroke-linejoin="round"/>
<path d="M359.322 34.4391C319.15 40.1112 68.1324 77.7439 15.7085 138.877C-30.9014 193.235 46.5533 208.458 64.6685 211.209" stroke="#263238" stroke-linecap="round" stroke-linejoin="round" stroke-dasharray="2.99 2.99"/>
<path d="M66.3821 211.464C67.5449 211.633 68.1936 211.694 68.1936 211.694" stroke="#263238" stroke-linecap="round" stroke-linejoin="round"/>
</svg>
