<svg width="311" height="702" viewBox="0 0 311 702" fill="none" xmlns="http://www.w3.org/2000/svg">
<path d="M266.3 276.324C266.3 276.324 220.9 270.587 152.108 289.363C152.108 289.363 141.052 166.435 142.355 149.537C143.659 132.639 248.568 137.594 248.568 137.594C248.568 137.594 251.176 186.801 258.008 216.477C264.84 246.153 269.847 270.613 266.3 276.324Z" fill="#407BFF"/>
<path opacity="0.2" d="M266.3 276.324C266.3 276.324 220.9 270.587 152.108 289.363C152.108 289.363 141.052 166.435 142.355 149.537C143.659 132.639 248.568 137.594 248.568 137.594C248.568 137.594 251.176 186.801 258.008 216.477C264.84 246.153 269.847 270.613 266.3 276.324Z" fill="black"/>
<path d="M118.938 683.285L137.453 688.526L141.86 659.711L144.233 644.299L125.718 639.058L122.563 659.711L118.938 683.285Z" fill="#E4897B"/>
<path d="M225.385 684.797L244.474 687.327L244.656 659.711L244.787 642.552L225.672 640.049L225.542 659.711L225.385 684.797Z" fill="#E4897B"/>
<path opacity="0.2" d="M225.672 640.049L225.542 659.711H244.656L244.787 642.552L225.672 640.049Z" fill="black"/>
<path opacity="0.2" d="M122.563 659.711H141.86L144.233 644.299L125.718 639.058L122.563 659.711Z" fill="black"/>
<path d="M36.7428 159.629L18.3584 154.205L21.7224 175.197C21.7224 175.197 38.4118 179.03 39.9764 170.347L36.7428 159.629Z" fill="#E4897B"/>
<path d="M0 159.081L9.02276 176.136L21.7223 175.197L18.3584 154.205L0 159.081Z" fill="#E4897B"/>
<path d="M62.1159 165.001L31.9186 158.247L29.1804 172.902L56.5876 179.578L62.1159 165.001Z" fill="#E4897B"/>
<path d="M153.464 151.753L151.691 153.866C147.884 158.325 138.653 169.095 129.03 178.378C121.207 185.941 113.384 192.538 108.168 193.868C93.3825 197.675 39.6375 181.847 39.6375 181.847L45.1919 160.046C45.1919 160.046 95.2601 166.696 99.1456 166.696C102.092 166.696 132.55 122.573 139.93 118.948L153.464 151.753Z" fill="#407BFF"/>
<path opacity="0.2" d="M151.691 153.866C147.884 158.325 138.653 169.095 129.03 178.378C130.96 163.097 136.566 149.068 143.946 140.201C144.634 139.345 145.422 138.575 146.293 137.906L151.691 153.866Z" fill="black"/>
<path d="M119.173 680.39L140.191 679.843C140.57 679.831 140.942 679.948 141.245 680.175C141.548 680.403 141.765 680.727 141.86 681.094L146.293 698.018C146.399 698.423 146.412 698.847 146.332 699.258C146.252 699.669 146.08 700.057 145.83 700.393C145.579 700.728 145.256 701.003 144.885 701.197C144.514 701.391 144.104 701.499 143.685 701.513C136.097 701.513 125.118 701.513 115.6 701.695C104.439 702.008 97.3461 701.461 84.3075 701.695C76.4843 701.904 73.8766 694.029 77.2145 693.22C92.1567 689.517 101.936 690.247 114.661 681.903C116.004 681.007 117.561 680.485 119.173 680.39Z" fill="#263238"/>
<path d="M117.348 683.102C114.27 683.78 108.794 684.693 106.604 682.894C106.284 682.629 106.033 682.293 105.87 681.912C105.706 681.531 105.636 681.116 105.665 680.703C105.664 680.455 105.728 680.211 105.852 679.995C105.976 679.78 106.154 679.602 106.369 679.477C108.69 678.095 116.539 681.824 117.452 682.242C117.532 682.285 117.598 682.349 117.644 682.427C117.69 682.505 117.714 682.594 117.713 682.685C117.708 682.786 117.67 682.882 117.603 682.958C117.537 683.033 117.447 683.084 117.348 683.102ZM106.917 680.208H106.76C106.673 680.258 106.601 680.33 106.551 680.417C106.5 680.504 106.474 680.603 106.473 680.703C106.452 680.973 106.495 681.243 106.599 681.493C106.703 681.742 106.866 681.963 107.073 682.137C108.299 683.154 111.48 683.259 115.705 682.424C112.654 681.146 108.403 679.66 106.969 680.208H106.917Z" fill="#407BFF"/>
<path d="M117.347 683.102H117.034C114.661 682.111 109.915 678.095 110.176 675.931C110.176 675.409 110.593 674.757 111.845 674.601C112.305 674.541 112.772 674.572 113.219 674.693C113.667 674.814 114.086 675.022 114.453 675.305C117.061 677.261 117.66 682.398 117.712 682.607C117.72 682.686 117.707 682.766 117.675 682.839C117.643 682.912 117.593 682.976 117.53 683.024L117.347 683.102ZM111.506 675.618C111.115 675.748 111.089 675.957 111.089 676.035C110.932 677.339 114.166 680.52 116.591 681.876C116.311 679.686 115.343 677.641 113.827 676.035C113.57 675.819 113.269 675.66 112.945 675.57C112.621 675.48 112.281 675.461 111.949 675.514C111.797 675.527 111.648 675.562 111.506 675.618Z" fill="#407BFF"/>
<path d="M226.141 680.39L247.16 679.843C247.542 679.829 247.917 679.946 248.225 680.173C248.533 680.4 248.755 680.725 248.855 681.094L253.262 698.018C253.373 698.424 253.39 698.849 253.312 699.262C253.234 699.676 253.063 700.065 252.811 700.402C252.56 700.739 252.235 701.014 251.861 701.207C251.487 701.399 251.074 701.504 250.654 701.513C243.065 701.513 232.087 701.513 222.543 701.695C211.408 702.008 204.289 701.461 191.25 701.695C183.427 701.904 180.819 694.029 184.157 693.22C199.099 689.517 208.852 690.247 221.578 681.903C222.936 680.999 224.512 680.476 226.141 680.39Z" fill="#263238"/>
<path d="M224.342 683.102C221.265 683.78 215.763 684.693 213.598 682.894C213.279 682.629 213.027 682.293 212.864 681.912C212.701 681.531 212.631 681.116 212.66 680.703C212.659 680.455 212.723 680.211 212.847 679.995C212.97 679.78 213.149 679.602 213.364 679.477C215.658 678.095 223.534 681.824 224.42 682.242C224.507 682.276 224.58 682.338 224.627 682.418C224.674 682.499 224.693 682.593 224.681 682.685C224.674 682.781 224.638 682.872 224.577 682.947C224.517 683.021 224.435 683.076 224.342 683.102ZM213.911 680.208H213.755C213.669 680.257 213.599 680.33 213.552 680.417C213.506 680.505 213.486 680.604 213.494 680.703C213.468 680.973 213.509 681.245 213.614 681.496C213.718 681.746 213.883 681.966 214.094 682.137C215.319 683.154 218.475 683.259 222.725 682.424C219.622 681.146 215.372 679.66 213.937 680.208H213.911Z" fill="#407BFF"/>
<path d="M224.342 683.102H224.003C221.656 682.111 216.884 678.095 217.171 675.931C217.171 675.409 217.562 674.757 218.814 674.601C219.273 674.538 219.741 674.568 220.189 674.689C220.637 674.81 221.056 675.019 221.421 675.305C223.246 677.337 224.386 679.891 224.681 682.607C224.694 682.686 224.684 682.768 224.652 682.842C224.619 682.916 224.566 682.98 224.499 683.024L224.342 683.102ZM218.475 675.618C218.11 675.748 218.084 675.957 218.084 676.035C217.901 677.339 221.161 680.52 223.586 681.876C223.287 679.691 222.322 677.652 220.822 676.035C220.563 675.82 220.263 675.663 219.939 675.573C219.615 675.483 219.276 675.463 218.944 675.514L218.475 675.618Z" fill="#407BFF"/>
<path d="M264.762 265.111C274.88 308.947 257.512 653.817 257.512 653.817H223.977L209.635 366.421L156.828 653.817L120.972 651.21C144.442 428.563 165.121 295.647 165.121 295.647V278.854L264.762 265.111Z" fill="#263238"/>
<path opacity="0.4" d="M120.972 651.21L156.828 653.817L198.395 427.572L209.635 366.421L223.977 653.817H257.512C257.512 653.817 274.88 308.947 264.762 265.111L165.069 278.854V295.647C165.069 295.647 144.416 428.563 120.972 651.21Z" fill="white"/>
<path d="M246.69 102.754C245.662 123.714 246.194 144.72 248.281 165.6C249.689 180.204 251.619 193.998 253.679 206.437C258.503 235.618 263.979 257.496 264.762 265.137L165.069 278.88C128.717 177.179 142.408 118.088 142.408 118.088C149.862 115.01 157.5 112.397 165.277 110.265C166.92 109.821 168.589 109.404 170.31 109.013C184.312 106.258 198.46 104.307 212.686 103.172C215.293 102.937 218.136 102.754 220.796 102.624C234.408 101.946 246.69 102.754 246.69 102.754Z" fill="#263238"/>
<path d="M193.337 56.989C194.067 70.9403 195.553 97.1218 207.157 103.771C207.157 103.771 199.934 117.514 184.314 118.922C172.501 119.965 173.283 108.309 173.283 108.309C180.115 103.224 178.499 94.5923 173.283 84.8394L193.337 56.989Z" fill="#E4897B"/>
<path opacity="0.2" d="M185.148 68.3586L173.361 84.8394C174.602 87.0934 175.649 89.4488 176.491 91.8803C181.967 89.6898 188.251 81.4494 187.339 75.4777C187.053 72.9901 186.31 70.5766 185.148 68.3586Z" fill="black"/>
<path d="M142.486 28.9039C140.217 36.1533 141.469 51.0173 151.561 46.193C161.653 41.3688 146.397 16.465 142.486 28.9039Z" fill="#263238"/>
<path d="M194.64 38.7089C195.761 57.3019 197.248 68.1239 189.138 78.6591C176.803 94.488 152.917 88.5945 146.241 70.6534C140.243 54.4856 139.435 26.7916 156.672 17.4038C160.493 15.325 164.778 14.2495 169.128 14.278C173.477 14.3064 177.749 15.4378 181.542 17.5663C185.335 19.6948 188.527 22.7509 190.818 26.4486C193.108 30.1462 194.423 34.3646 194.64 38.7089Z" fill="#E4897B"/>
<path d="M181.602 28.5909V7.72919C181.602 7.72919 203.715 6.08635 202.724 17.4038C214.981 23.4798 209.191 42.5423 192.737 51.8779C183.714 44.6545 184.757 27.2871 184.757 27.2871C183.792 27.7825 182.697 28.1998 181.602 28.5909Z" fill="#263238"/>
<path d="M203.637 53.2078C203.211 55.4823 202.334 57.6486 201.057 59.5788C199.781 61.5091 198.131 63.1643 196.205 64.4471C190.989 67.8632 186.478 63.6648 186.296 57.7974C186.139 52.582 188.616 44.3416 194.614 43.2985C195.926 43.094 197.268 43.2179 198.521 43.6591C199.773 44.1004 200.896 44.8452 201.79 45.827C202.684 46.8087 203.321 47.9968 203.643 49.2849C203.965 50.5729 203.963 51.9208 203.637 53.2078Z" fill="#E4897B"/>
<path d="M167.181 47.0014C167.363 48.5139 166.711 49.8178 165.721 49.9221C164.73 50.0264 163.791 48.9051 163.608 47.3144C163.426 45.7237 164.078 44.498 165.043 44.3937C166.007 44.2894 166.998 45.3846 167.181 47.0014Z" fill="#263238"/>
<path d="M150.127 48.9051C150.309 50.4176 149.657 51.7214 148.666 51.8257C147.675 51.93 146.737 50.8087 146.554 49.218C146.372 47.6273 147.023 46.4017 148.014 46.2974C149.005 46.1931 149.892 47.3926 150.127 48.9051Z" fill="#263238"/>
<path d="M155.629 49.0354C154.311 53.6984 152.354 58.1565 149.814 62.2826C150.939 62.8607 152.173 63.1944 153.436 63.2618C154.699 63.3292 155.961 63.1288 157.141 62.6738L155.629 49.0354Z" fill="#DE5753"/>
<path d="M165.929 67.5242C165.286 67.6882 164.633 67.8102 163.974 67.8893C163.856 67.8893 163.743 67.8426 163.66 67.7594C163.577 67.6763 163.53 67.5635 163.53 67.446C163.53 67.3284 163.577 67.2156 163.66 67.1325C163.743 67.0494 163.856 67.0026 163.974 67.0026C165.846 66.8327 167.653 66.2249 169.247 65.2284C170.842 64.2319 172.179 62.8744 173.153 61.2657C173.175 61.2129 173.208 61.1654 173.25 61.126C173.291 61.0866 173.34 61.0561 173.394 61.0366C173.448 61.017 173.505 61.0087 173.562 61.0123C173.62 61.0158 173.675 61.031 173.726 61.057C173.78 61.0821 173.828 61.1177 173.868 61.1616C173.907 61.2056 173.938 61.257 173.957 61.3129C173.977 61.3688 173.985 61.4281 173.981 61.4871C173.977 61.5462 173.962 61.6039 173.935 61.6568C173.082 63.138 171.93 64.4249 170.551 65.4352C169.173 66.4455 167.599 67.157 165.929 67.5242Z" fill="#263238"/>
<path d="M171.77 40.9255C171.613 40.9622 171.448 40.9574 171.293 40.9117C171.137 40.866 170.997 40.781 170.884 40.6647C170.128 39.8372 169.191 39.1967 168.146 38.7939C167.1 38.3911 165.975 38.237 164.86 38.3439C164.745 38.3703 164.626 38.3729 164.51 38.3513C164.394 38.3298 164.283 38.2845 164.185 38.2185C164.088 38.1525 164.004 38.067 163.941 37.9674C163.878 37.8679 163.835 37.7563 163.817 37.6398C163.794 37.525 163.794 37.4069 163.818 37.2922C163.841 37.1776 163.886 37.0686 163.952 36.9716C164.017 36.8747 164.101 36.7916 164.199 36.7273C164.297 36.6629 164.406 36.6185 164.521 36.5967C165.929 36.429 167.356 36.5995 168.685 37.0938C170.014 37.5881 171.206 38.3921 172.162 39.4391C172.247 39.5195 172.315 39.6165 172.361 39.7241C172.408 39.8318 172.431 39.9478 172.431 40.065C172.431 40.1822 172.408 40.2981 172.361 40.4057C172.315 40.5133 172.247 40.6103 172.162 40.6908C172.05 40.7969 171.917 40.8771 171.77 40.9255Z" fill="#263238"/>
<path d="M142.069 43.8722C141.901 43.9364 141.715 43.9364 141.547 43.8722C141.326 43.7951 141.145 43.6341 141.043 43.4242C140.94 43.2142 140.925 42.9722 140.999 42.7509C141.43 41.4086 142.179 40.1906 143.183 39.2006C144.186 38.2107 145.414 37.4783 146.762 37.066C146.991 37.0072 147.233 37.0415 147.436 37.1614C147.639 37.2812 147.786 37.4767 147.845 37.7049C147.903 37.9331 147.869 38.1754 147.749 38.3784C147.63 38.5813 147.434 38.7283 147.206 38.7871C146.14 39.1157 145.17 39.7014 144.384 40.4926C143.597 41.2839 143.017 42.2564 142.694 43.3246C142.645 43.4613 142.562 43.5832 142.452 43.679C142.343 43.7747 142.211 43.8412 142.069 43.8722Z" fill="#263238"/>
<path d="M191.407 36.3098C191.407 36.3098 178.368 31.5377 172.422 23.9753C172.422 23.9753 160.583 27.0785 158.158 31.7984C157.052 30.8508 156.335 29.5269 156.148 28.0822C155.96 26.6375 156.314 25.1744 157.141 23.9753C157.141 23.9753 148.275 25.8528 146.528 31.7984C145.087 31.1125 143.904 29.9824 143.153 28.5742C142.402 27.1661 142.122 25.5541 142.355 23.9753C142.355 23.9753 138.418 25.4617 137.14 31.7984C137.14 31.7984 127.361 11.4061 159.671 5.56481C157.226 4.7351 154.664 4.3037 152.082 4.28705C152.082 4.28705 174.639 -4.81389 192.502 3.50473C210.365 11.8233 207.262 27.9391 191.407 36.3098Z" fill="#263238"/>
<path d="M272.455 282.687L241.162 286.859C241.162 286.859 228.254 196.658 222.569 167.53V105.362L238.919 101.059L251.593 105.362C255.069 117.87 257.743 130.587 259.598 143.435C261.137 153.188 262.519 163.619 263.745 174.18C265.44 188.574 266.848 203.23 268.047 216.946C269.925 239.086 271.177 258.67 271.855 270.639C272.246 278.15 272.455 282.687 272.455 282.687Z" fill="#407BFF"/>
<path d="M222.595 167.478C222.595 167.478 225.203 123.59 238.945 100.955C238.945 100.955 238.606 94.4879 235.868 93.4449C233.13 92.4018 222.595 98.6603 222.595 98.6603C222.595 98.6603 216.05 94.175 214.615 96.2612C213.181 98.3474 209.687 112.22 222.595 167.478Z" fill="#407BFF"/>
<path opacity="0.7" d="M222.595 167.478C222.595 167.478 225.203 123.59 238.945 100.955C238.945 100.955 238.606 94.4879 235.868 93.4449C233.13 92.4018 222.595 98.6603 222.595 98.6603C222.595 98.6603 216.05 94.175 214.615 96.2612C213.181 98.3474 209.687 112.22 222.595 167.478Z" fill="white"/>
<path d="M151.456 294.709L155.029 297.316C155.029 297.316 149.814 268.24 151.952 194.703C151.952 191.156 152.186 187.74 152.317 184.48C154.925 122.26 164.625 110.943 165.355 110.265L156.333 113.342L139.982 118.974C135.054 172.042 151.456 294.709 151.456 294.709Z" fill="#407BFF"/>
<path d="M152.865 173.763C152.865 173.763 143.842 131.1 146.528 116.393C149.214 101.685 158.836 108.231 158.836 108.231C158.836 108.231 167.676 101.086 170.31 108.961C170.31 108.961 158.158 117.514 152.865 173.763Z" fill="#407BFF"/>
<path opacity="0.7" d="M152.865 173.763C152.865 173.763 143.842 131.1 146.528 116.393C149.214 101.685 158.836 108.231 158.836 108.231C158.836 108.231 167.676 101.086 170.31 108.961C170.31 108.961 158.158 117.514 152.865 173.763Z" fill="white"/>
<path opacity="0.2" d="M263.693 174.076C250.341 166.591 248.568 147.06 248.568 147.06C249.376 146.747 254.331 145.052 259.546 143.331C261.085 153.083 262.467 163.514 263.693 174.076Z" fill="black"/>
<path opacity="0.2" d="M198.395 427.572L209.635 366.421L207.47 334.059C207.47 334.059 192.059 390.177 198.395 427.572Z" fill="black"/>
<path opacity="0.2" d="M271.803 270.535C263.406 269.961 256.156 269.414 256.156 269.414L254.566 235.279C257.182 233.641 260.325 233.063 263.354 233.662C265.417 228.209 266.979 222.579 268.021 216.842C269.847 238.982 271.125 258.592 271.803 270.535Z" fill="black"/>
<path d="M274.671 216.816L258.321 243.076L271.255 250.508L286.615 226.856L274.671 216.816Z" fill="#E4897B"/>
<path d="M250.889 104.945C261.893 106.144 308.676 170.347 310.736 189.696C312.796 209.045 283.251 242.45 283.251 242.45L263.536 230.846C263.536 230.846 283.564 200.048 284.607 191.73C285.65 183.411 247.968 149.798 247.968 149.798C245.119 142.054 243.551 133.898 243.326 125.65C242.805 111.516 250.889 104.945 250.889 104.945Z" fill="#407BFF"/>
<path d="M254.54 235.305C254.54 235.305 271.359 238.903 278.139 249.491C278.139 249.491 271.098 271.526 266.066 273.925C261.033 276.324 248.568 276.324 248.568 276.324C248.568 276.324 247.759 251.812 254.54 235.305Z" fill="#407BFF"/>
</svg>
