<svg width="148" height="256" viewBox="0 0 148 256" fill="none" xmlns="http://www.w3.org/2000/svg">
<path d="M78.7538 173.391H76.2765C76.2765 169.714 79.3275 83.5549 94.3219 69.0821C109.734 54.0877 127.857 68.8735 128.014 69.0821L126.449 70.9597C125.771 70.412 109.838 57.4777 96.0169 70.9597C81.7527 84.5459 78.7799 172.504 78.7538 173.391Z" fill="#407BFF"/>
<path d="M77.5022 190.68L75.0509 190.445C75.0509 189.402 84.7516 85.8236 47.2266 42.7441L49.078 41.1273C87.3072 85.0152 77.6065 189.637 77.5022 190.68Z" fill="#407BFF"/>
<path d="M78.7016 179.623C78.3887 174.721 71.1653 59.6682 100.007 33.0695L101.676 34.8949C73.6948 60.607 81.0746 178.319 81.1529 179.441L78.7016 179.623Z" fill="#407BFF"/>
<path d="M75.0508 179.545C75.0508 178.763 74.1642 101.314 53.6414 89.657C51.8967 88.5065 49.901 87.7921 47.8224 87.5743C45.7439 87.3565 43.6434 87.6415 41.6981 88.4053C29.6765 93.386 23.2876 116.334 23.2093 116.569L20.8363 115.917C21.0971 114.926 27.6164 91.5867 40.7593 86.1366C43.0489 85.2168 45.5264 84.8623 47.9821 85.1028C50.4378 85.3434 52.7994 86.1721 54.867 87.5187C76.5893 99.9575 77.502 176.181 77.5281 179.519L75.0508 179.545Z" fill="#407BFF"/>
<path d="M83.4997 179.597C83.3432 176.989 80.1879 118.472 96.7991 96.75C101.232 90.987 106.135 88.2488 111.454 88.64C123.267 89.4484 132.316 105.46 132.812 106.138L130.673 107.363C130.673 107.207 121.755 91.7171 111.272 91.0912C106.865 90.7522 102.64 93.1774 98.7548 98.2625C82.6913 119.124 85.9249 178.867 85.951 179.467L83.4997 179.597Z" fill="#407BFF"/>
<path d="M80.188 187.707L77.7367 187.525C77.7367 186.116 88.1676 46.395 70.9567 23.082L72.9385 21.6216C90.7232 45.6647 80.6313 181.918 80.188 187.707Z" fill="#407BFF"/>
<path d="M35.9872 100.036C35.9872 100.036 46.6267 103.973 43.4714 113.231C40.316 122.488 6.62431 137.743 6.62431 137.743C6.62431 137.743 -7.48345 124.835 5.47691 103.843C18.4373 82.8508 35.7004 93.4121 35.9872 100.036Z" fill="#407BFF"/>
<path opacity="0.2" d="M35.9872 100.036C35.9872 100.036 46.6267 103.973 43.4714 113.231C40.316 122.488 6.62431 137.743 6.62431 137.743C6.62431 137.743 -7.48345 124.835 5.47691 103.843C18.4373 82.8508 35.7004 93.4121 35.9872 100.036Z" fill="black"/>
<path d="M82.2743 82.4076C82.2743 82.4076 70.9307 81.9382 70.2788 91.691C69.6269 101.444 94.7914 128.512 94.7914 128.512C94.7914 128.512 112.785 121.993 108.925 97.6105C105.066 73.2284 85.0906 76.3837 82.2743 82.4076Z" fill="#407BFF"/>
<path opacity="0.2" d="M82.2743 82.4076C82.2743 82.4076 70.9307 81.9382 70.2788 91.691C69.6269 101.444 94.7914 128.512 94.7914 128.512C94.7914 128.512 112.785 121.993 108.925 97.6105C105.066 73.2284 85.0906 76.3837 82.2743 82.4076Z" fill="black"/>
<path d="M91.8707 35.6251C91.8707 35.6251 84.3084 34.8167 84.9081 30.2271C85.5079 25.6375 114.297 13.7724 131.273 32.8348C131.273 32.8348 120.399 51.5061 104.701 51.7669C89.0023 52.0276 91.8707 35.6251 91.8707 35.6251Z" fill="#407BFF"/>
<path opacity="0.2" d="M91.8707 35.6251C91.8707 35.6251 84.3084 34.8167 84.9081 30.2271C85.5079 25.6375 114.297 13.7724 131.273 32.8348C131.273 32.8348 120.399 51.5061 104.701 51.7669C89.0023 52.0276 91.8707 35.6251 91.8707 35.6251Z" fill="black"/>
<path d="M77.7891 24.438C77.7891 24.438 84.6213 27.7498 86.551 23.5252C88.4807 19.3007 70.3049 -5.96802 45.7663 1.30752C45.7663 1.30752 45.1143 22.8994 58.3094 31.4266C71.5045 39.9539 77.7891 24.438 77.7891 24.438Z" fill="#407BFF"/>
<path opacity="0.2" d="M77.7891 24.438C77.7891 24.438 84.6213 27.7498 86.551 23.5252C88.4807 19.3007 70.3049 -5.96802 45.7663 1.30752C45.7663 1.30752 45.1143 22.8994 58.3094 31.4266C71.5045 39.9539 77.7891 24.438 77.7891 24.438Z" fill="black"/>
<path d="M113.567 96.3328C113.567 96.3328 108.351 92.1083 113.984 90.0482C119.617 87.9881 147.232 88.5878 147.519 115.943C147.519 115.943 115.34 121.289 111.376 110.858C107.413 100.427 113.567 96.3328 113.567 96.3328Z" fill="#407BFF"/>
<path opacity="0.2" d="M113.567 96.3328C113.567 96.3328 108.351 92.1083 113.984 90.0482C119.617 87.9881 147.232 88.5878 147.519 115.943C147.519 115.943 115.34 121.289 111.376 110.858C107.413 100.427 113.567 96.3328 113.567 96.3328Z" fill="black"/>
<path d="M47.8523 34.9471C47.8523 34.9471 53.0677 30.7226 47.435 28.6886C41.8023 26.6545 14.1866 27.2021 13.8998 54.5571C13.8998 54.5571 46.079 59.929 50.0427 49.4981C54.0065 39.0672 47.8523 34.9471 47.8523 34.9471Z" fill="#407BFF"/>
<path opacity="0.2" d="M47.8523 34.9471C47.8523 34.9471 53.0677 30.7226 47.435 28.6886C41.8023 26.6545 14.1866 27.2021 13.8998 54.5571C13.8998 54.5571 46.079 59.929 50.0427 49.4981C54.0065 39.0672 47.8523 34.9471 47.8523 34.9471Z" fill="black"/>
<path d="M64.9589 56.9823C64.9589 56.9823 65.4283 51.7669 61.282 53.8791C57.1357 55.9914 42.7672 71.429 57.6833 86.1626C57.6833 86.1626 77.7889 71.2726 74.1641 63.5276C70.5394 55.7827 64.9589 56.9823 64.9589 56.9823Z" fill="#407BFF"/>
<path opacity="0.2" d="M64.9589 56.9823C64.9589 56.9823 65.4283 51.7669 61.282 53.8791C57.1357 55.9914 42.7672 71.429 57.6833 86.1626C57.6833 86.1626 77.7889 71.2726 74.1641 63.5276C70.5394 55.7827 64.9589 56.9823 64.9589 56.9823Z" fill="black"/>
<path d="M118.261 64.2839C118.261 64.2839 115.131 60.1897 119.721 59.6943C124.311 59.1988 144.755 64.649 139.983 85.0935C139.983 85.0935 115.053 83.216 113.906 74.6626C112.758 66.1093 118.261 64.2839 118.261 64.2839Z" fill="#407BFF"/>
<path opacity="0.2" d="M118.261 64.2839C118.261 64.2839 115.131 60.1897 119.721 59.6943C124.311 59.1988 144.755 64.649 139.983 85.0935C139.983 85.0935 115.053 83.216 113.906 74.6626C112.758 66.1093 118.261 64.2839 118.261 64.2839Z" fill="black"/>
<path d="M37.8387 255.378H118.443L129.161 176.99H27.121L37.8387 255.378Z" fill="#263238"/>
<path opacity="0.2" d="M37.8387 255.378H118.443L129.161 176.99H27.121L37.8387 255.378Z" fill="white"/>
<path d="M139.279 170.627V178.085C139.279 180.478 138.328 182.773 136.636 184.465C134.944 186.157 132.649 187.107 130.256 187.107H25.0349C22.6419 187.107 20.347 186.157 18.6549 184.465C16.9628 182.773 16.0122 180.478 16.0122 178.085V170.627H139.279Z" fill="#263238"/>
</svg>
